<?xml version="1.0" encoding="UTF-8"?><!DOCTYPE svg PUBLIC "-//W3C//DTD SVG 1.1//EN" "http://www.w3.org/Graphics/SVG/1.1/DTD/svg11.dtd"><svg xmlns="http://www.w3.org/2000/svg"><symbol id="notes" viewBox="0 0 12 16"><path d="M12 11.4c0 .7-.4 1.4-1.1 2-.7.6-1.5.9-2.4.9-.6 0-1-.1-1.4-.4-.3-.3-.5-.6-.5-1.1 0-.7.4-1.4 1.1-2 .7-.6 1.5-.9 2.4-.9.5 0 .9.1 1.2.3V2l-6 1.6v9.6c0 .7-.4 1.4-1.1 2-.7.5-1.5.8-2.3.8-.6 0-1-.1-1.4-.4-.3-.3-.5-.6-.5-1.1 0-.7.4-1.4 1.1-2s1.5-.9 2.4-.9c.5 0 .9.1 1.2.3v-10L12 0v11.4z"/></symbol><symbol id="speech-bubble" viewBox="0 0 24 16"><path d="M16 14.1c-1.2.4-2.7.4-3.9.4-1.9 0-3.5-.3-4.8-.5-1.9-.5-3.5-1.2-4.7-2.1C.9 10.5 0 8.9 0 7.3 0 5.6.9 4 2.7 2.8 5.1.9 8.3 0 12 0c4.1 0 7.6 1.2 10 3.3 1.2 1.1 2 2.5 2 4.1 0 1.7-1.2 3.5-3.2 4.9-.9 1.5-.1 3.6-.7 3.6-.4.2-2.1-2.3-4.1-1.8z"/></symbol><symbol id="wrench" viewBox="0 0 16 16"><path d="M16 13.5c0 .1 0 .2-.1.4-.3-.2-.6-.4-.8-.6-.7-.5-.9-.5-1.5.1-.1.1-.2.3-.3.6-.1.3-.2.5-.2.6.5.4 1.1.8 1.7 1.2-.4.4-1.1.3-1.6.1-.6-.2-1-.5-1.3-1 0-.1 0-.2-.1-.4-.1-.5-.2-1-.6-1.4l-4-4.5C6.6 8 5.7 7 4.5 5.7c-.1-.2-.5-.4-1-.5-.7-.3-1.3.1-2-.2-.1-.1-.2-.2-.4-.3-.4-.2-.7-.5-.8-.8-.1 0-.1-.3-.2-.6s-.2-.6 0-.8c.2.1.6.4 1.2.8.1.1.3.2.5.3.5.2.9-.2 1.2-.5.3-.3.5-.6.5-.8v-.7L1.7.5l.1-.3c.6-.3 1.7-.2 2.3.2.5.5.8.8.9 1.2 0 .3 0 .6.1 1.1 0 0 .1.1.2.3.1.2.4.6 1 1.2 1.3 1.5 3.3 3.8 6 6.7.1.1.3.2.5.4.3.1.6.2.9.2.5 0 .7.1.9.1.4.1.7.3 1 .7.2.4.4.8.4 1.2z"/></symbol></svg>