<?xml version="1.0" encoding="utf-8"?>
<svg version="1.1"
	 id="notes"
	 xmlns="http://www.w3.org/2000/svg" xmlns:xlink="http://www.w3.org/1999/xlink" x="0px" y="0px" viewBox="0 0 12 16">
<g>
	<g>
		<path d="M12,11.4c0,0.7-0.4,1.4-1.1,2c-0.7,0.6-1.5,0.9-2.4,0.9c-0.6,0-1-0.1-1.4-0.4c-0.3-0.3-0.5-0.6-0.5-1.1
			c0-0.7,0.4-1.4,1.1-2c0.7-0.6,1.5-0.9,2.4-0.9c0.5,0,0.9,0.1,1.2,0.3V2l-6,1.6v9.6c0,0.7-0.4,1.4-1.1,2C3.5,15.7,2.7,16,1.9,16
			c-0.6,0-1-0.1-1.4-0.4C0.2,15.3,0,15,0,14.5c0-0.7,0.4-1.4,1.1-2s1.5-0.9,2.4-0.9c0.5,0,0.9,0.1,1.2,0.3v-10L12,0V11.4z"/>
	</g>
</g>
</svg>
