<?xml version="1.0" encoding="utf-8"?>
<!-- Generator: Adobe Illustrator 21.0.0, SVG Export Plug-In . SVG Version: 6.00 Build 0)  -->
<svg version="1.1" id="speech-bubble" xmlns="http://www.w3.org/2000/svg" xmlns:xlink="http://www.w3.org/1999/xlink" x="0px"
	 y="0px" viewBox="0 0 24 16" style="enable-background:new 0 0 24 16;" xml:space="preserve">
<g>
	<g>
		<path d="M16,14.1c-1.2,0.4-2.7,0.4-3.9,0.4c-1.9,0-3.5-0.3-4.8-0.5c-1.9-0.5-3.5-1.2-4.7-2.1C0.9,10.5,0,8.9,0,7.3
			C0,5.6,0.9,4,2.7,2.8C5.1,0.9,8.3,0,12,0c4.1,0,7.6,1.2,10,3.3c1.2,1.1,2,2.5,2,4.1c0,1.7-1.2,3.5-3.2,4.9
			c-0.9,1.5-0.1,3.6-0.7,3.6C19.7,16.1,18,13.6,16,14.1z"/>
	</g>
</g>
</svg>
