<?xml version="1.0" encoding="utf-8"?>
<svg version="1.1"
	id="wrench" text-rendering="auto"
	xmlns="http://www.w3.org/2000/svg" xmlns:xlink="http://www.w3.org/1999/xlink" x="0px" y="0px" viewBox="0 0 16 16"
	xml:space="preserve">
<g>
	<g>
		<path d="M16,13.5c0,0.1,0,0.2-0.1,0.4c-0.3-0.2-0.6-0.4-0.8-0.6c-0.7-0.5-0.9-0.5-1.5,0.1c-0.1,0.1-0.2,0.3-0.3,0.6
			c-0.1,0.3-0.2,0.5-0.2,0.6c0.5,0.4,1.1,0.8,1.7,1.2c-0.4,0.4-1.1,0.3-1.6,0.1c-0.6-0.2-1-0.5-1.3-1c0-0.1,0-0.2-0.1-0.4
			c-0.1-0.5-0.2-1-0.6-1.4L7.2,8.6C6.6,8,5.7,7,4.5,5.7C4.4,5.5,4,5.3,3.5,5.2C2.8,4.9,2.2,5.3,1.5,5C1.4,4.9,1.3,4.8,1.1,4.7
			C0.7,4.5,0.4,4.2,0.3,3.9C0.2,3.9,0.2,3.6,0.1,3.3C0,3-0.1,2.7,0.1,2.5c0.2,0.1,0.6,0.4,1.2,0.8c0.1,0.1,0.3,0.2,0.5,0.3
			C2.3,3.8,2.7,3.4,3,3.1c0.3-0.3,0.5-0.6,0.5-0.8V1.6L1.7,0.5l0.1-0.3C2.4-0.1,3.5,0,4.1,0.4C4.6,0.9,4.9,1.2,5,1.6
			c0,0.3,0,0.6,0.1,1.1c0,0,0.1,0.1,0.2,0.3c0.1,0.2,0.4,0.6,1,1.2c1.3,1.5,3.3,3.8,6,6.7c0.1,0.1,0.3,0.2,0.5,0.4
			c0.3,0.1,0.6,0.2,0.9,0.2c0.5,0,0.7,0.1,0.9,0.1c0.4,0.1,0.7,0.3,1,0.7C15.8,12.7,16,13.1,16,13.5z"/>
	</g>
</g>
</svg>
